name Walk4.mot
datacolumns 19
datarows 27
range 2.39900000 2.42500000
endheader

                time	   L_ground_force_vx	   L_ground_force_vy	   L_ground_force_vz	   L_ground_force_px	   L_ground_force_py	   L_ground_force_pz	   R_ground_force_vx	   R_ground_force_vy	   R_ground_force_vz	   R_ground_force_px	   R_ground_force_py	   R_ground_force_pz	   L_ground_torque_x	   L_ground_torque_y	   L_ground_torque_z	   R_ground_torque_x	   R_ground_torque_y	   R_ground_torque_z	
          2.39900000	          0.00000000	          0.00000000	         -0.00000000	         -0.00000000	          0.00000000	         -0.00000000	          2.38310165	         15.19523162	          1.83766520	          0.16763932	          0.00000000	          0.03750216	          0.00000000	          0.00000000	          0.00000000	          0.00000000	         -0.00278266	          0.00000000	
          2.40000000	          0.00000000	          0.00000000	         -0.00000000	         -0.00000000	          0.00000000	         -0.00000000	          1.87799847	         13.32798629	          1.74865197	          0.15970865	          0.00000000	          0.03566729	          0.00000000	          0.00000000	          0.00000000	          0.00000000	          0.00081097	          0.00000000	
          2.40100000	          0.00000000	          0.00000000	         -0.00000000	         -0.00000000	          0.00000000	         -0.00000000	          1.40874474	         11.56913857	          1.66059927	          0.15184877	          0.00000000	          0.03385364	          0.00000000	          0.00000000	          0.00000000	          0.00000000	          0.00409599	          0.00000000	
          2.40200000	          0.00000000	          0.00000000	         -0.00000000	         -0.00000000	          0.00000000	         -0.00000000	          0.97406560	          9.91611832	          1.57375815	          0.14408337	          0.00000000	          0.03206627	          0.00000000	          0.00000000	          0.00000000	          0.00000000	          0.00708622	          0.00000000	
          2.40300000	          0.00000000	          0.00000000	         -0.00000000	         -0.00000000	          0.00000000	         -0.00000000	          0.57266392	          8.36617404	          1.48835377	          0.13643376	          0.00000000	          0.03030971	          0.00000000	          0.00000000	          0.00000000	          0.00000000	          0.00979544	          0.00000000	
          2.40400000	          0.00000000	          0.00000000	         -0.00000000	         -0.00000000	          0.00000000	         -0.00000000	          0.20322712	          6.91639865	          1.40458668	          0.12891900	          0.00000000	          0.02858795	          0.00000000	          0.00000000	          0.00000000	          0.00000000	          0.01223729	          0.00000000	
          2.40500000	          0.00000000	          0.00000000	         -0.00000000	         -0.00000000	          0.00000000	         -0.00000000	         -0.13556657	          5.56375374	          1.32263421	          0.12155602	          0.00000000	          0.02690457	          0.00000000	          0.00000000	          0.00000000	          0.00000000	          0.01442528	          0.00000000	
          2.40600000	          0.00000000	          0.00000000	         -0.00000000	         -0.00000000	          0.00000000	         -0.00000000	         -0.44504233	          4.30509221	          1.24265175	          0.11435974	          0.00000000	          0.02526264	          0.00000000	          0.00000000	          0.00000000	          0.00000000	          0.01637273	          0.00000000	
          2.40700000	          0.00000000	          0.00000000	         -0.00000000	         -0.00000000	          0.00000000	         -0.00000000	         -0.72652347	          3.13717938	          1.16477404	          0.10734318	          0.00000000	          0.02366486	          0.00000000	          0.00000000	          0.00000000	          0.00000000	          0.01809274	          0.00000000	
          2.40800000	          0.00000000	          0.00000000	         -0.00000000	         -0.00000000	          0.00000000	         -0.00000000	         -0.98132654	          2.05671269	          1.08911641	          0.10051757	          0.00000000	          0.02211350	          0.00000000	          0.00000000	          0.00000000	          0.00000000	          0.01959813	          0.00000000	
          2.40900000	          0.00000000	          0.00000000	         -0.00000000	         -0.00000000	          0.00000000	         -0.00000000	         -1.21075699	          1.06033994	          1.01577599	          0.09389247	          0.00000000	          0.02061048	          0.00000000	          0.00000000	          0.00000000	          0.00000000	          0.02090147	          0.00000000	
          2.41000000	          0.00000000	          0.00000000	         -0.00000000	         -0.00000000	          0.00000000	         -0.00000000	         -1.41610514	          0.14467617	          0.94483290	          0.08747586	          0.00000000	          0.01915738	          0.00000000	          0.00000000	          0.00000000	          0.00000000	          0.02201501	          0.00000000	
          2.41100000	          0.00000000	          0.00000000	         -0.00000000	         -0.00000000	          0.00000000	         -0.00000000	         -1.59864260	         -0.69368074	          0.87635138	          0.08127427	          0.00000000	          0.01775543	          0.00000000	          0.00000000	          0.00000000	          0.00000000	          0.02295069	          0.00000000	
          2.41200000	          0.00000000	          0.00000000	         -0.00000000	         -0.00000000	          0.00000000	         -0.00000000	         -1.75961907	         -1.45813580	          0.81038091	          0.07529285	          0.00000000	          0.01640559	          0.00000000	          0.00000000	          0.00000000	          0.00000000	          0.02372008	          0.00000000	
          2.41300000	          0.00000000	          0.00000000	         -0.00000000	         -0.00000000	          0.00000000	         -0.00000000	         -1.90025945	         -2.15208376	          0.74695729	          0.06953548	          0.00000000	          0.01510852	          0.00000000	          0.00000000	          0.00000000	          0.00000000	          0.02433443	          0.00000000	
          2.41400000	          0.00000000	          0.00000000	         -0.00000000	         -0.00000000	          0.00000000	         -0.00000000	         -2.02176137	         -2.77889714	          0.68610363	          0.06400487	          0.00000000	          0.01386465	          0.00000000	          0.00000000	          0.00000000	          0.00000000	          0.02480459	          0.00000000	
          2.41500000	          0.00000000	          0.00000000	         -0.00000000	         -0.00000000	          0.00000000	         -0.00000000	         -2.12529292	         -3.34191543	          0.62783138	          0.05870264	          0.00000000	          0.01267414	          0.00000000	          0.00000000	          0.00000000	          0.00000000	          0.02514104	          0.00000000	
          2.41600000	          0.00000000	          0.00000000	         -0.00000000	         -0.00000000	          0.00000000	         -0.00000000	         -2.21199080	         -3.84443524	          0.57214125	          0.05362940	          0.00000000	          0.01153696	          0.00000000	          0.00000000	          0.00000000	          0.00000000	          0.02535388	          0.00000000	
          2.41700000	          0.00000000	          0.00000000	         -0.00000000	         -0.00000000	          0.00000000	         -0.00000000	         -2.28295867	         -4.28970150	          0.51902413	          0.04878485	          0.00000000	          0.01045287	          0.00000000	          0.00000000	          0.00000000	          0.00000000	          0.02545282	          0.00000000	
          2.41800000	          0.00000000	          0.00000000	         -0.00000000	         -0.00000000	          0.00000000	         -0.00000000	         -2.33926579	         -4.68089958	          0.46846198	          0.04416786	          0.00000000	          0.00942146	          0.00000000	          0.00000000	          0.00000000	          0.00000000	          0.02544717	          0.00000000	
          2.41900000	          0.00000000	          0.00000000	         -0.00000000	         -0.00000000	          0.00000000	         -0.00000000	         -2.38194589	         -5.02114834	          0.42042863	          0.03977653	          0.00000000	          0.00844214	          0.00000000	          0.00000000	          0.00000000	          0.00000000	          0.02534584	          0.00000000	
          2.42000000	          0.00000000	          0.00000000	         -0.00000000	         -0.00000000	          0.00000000	         -0.00000000	         -2.41199634	         -5.31349398	          0.37489057	          0.03560826	          0.00000000	          0.00751419	          0.00000000	          0.00000000	          0.00000000	          0.00000000	          0.02515734	          0.00000000	
          2.42100000	          0.00000000	          0.00000000	         -0.00000000	         -0.00000000	          0.00000000	         -0.00000000	         -2.43037740	         -5.56090472	          0.33180773	          0.03165983	          0.00000000	          0.00663674	          0.00000000	          0.00000000	          0.00000000	          0.00000000	          0.02488982	          0.00000000	
          2.42200000	          0.00000000	          0.00000000	         -0.00000000	         -0.00000000	          0.00000000	         -0.00000000	         -2.43801179	         -5.76626621	          0.29113414	          0.02792749	          0.00000000	          0.00580882	          0.00000000	          0.00000000	          0.00000000	          0.00000000	          0.02455098	          0.00000000	
          2.42300000	          0.00000000	          0.00000000	         -0.00000000	         -0.00000000	          0.00000000	         -0.00000000	         -2.43578440	         -5.93237762	          0.25281866	          0.02440695	          0.00000000	          0.00502934	          0.00000000	          0.00000000	          0.00000000	          0.00000000	          0.02414818	          0.00000000	
          2.42400000	          0.00000000	          0.00000000	         -0.00000000	         -0.00000000	          0.00000000	         -0.00000000	         -2.42454213	         -6.06194848	          0.21680558	          0.02109351	          0.00000000	          0.00429713	          0.00000000	          0.00000000	          0.00000000	          0.00000000	          0.02368838	          0.00000000	
          2.42500000	          0.00000000	          0.00000000	         -0.00000000	         -0.00000000	          0.00000000	         -0.00000000	         -2.40509394	         -6.15759599	          0.18303522	          0.01798209	          0.00000000	          0.00361094	          0.00000000	          0.00000000	          0.00000000	          0.00000000	          0.02317816	          0.00000000	
